<?xml version="1.0" encoding="UTF-8" standalone="no"?>
<svg
   xmlns:dc="http://purl.org/dc/elements/1.1/"
   xmlns:cc="http://creativecommons.org/ns#"
   xmlns:rdf="http://www.w3.org/1999/02/22-rdf-syntax-ns#"
   xmlns:svg="http://www.w3.org/2000/svg"
   xmlns="http://www.w3.org/2000/svg"
   xmlns:sodipodi="http://sodipodi.sourceforge.net/DTD/sodipodi-0.dtd"
   xmlns:inkscape="http://www.inkscape.org/namespaces/inkscape"
   width="128"
   height="32"
   id="svg2"
   version="1.1"
   inkscape:version="0.92.3 (2405546, 2018-03-11)"
   sodipodi:docname="button-quit.svg"
   style="enable-background:new">
  <metadata
     id="metadata9">
    <rdf:RDF>
      <cc:Work
         rdf:about="">
        <dc:format>image/svg+xml</dc:format>
        <dc:type
           rdf:resource="http://purl.org/dc/dcmitype/StillImage" />
        <dc:title></dc:title>
      </cc:Work>
    </rdf:RDF>
  </metadata>
  <defs
     id="defs7" />
  <sodipodi:namedview
     pagecolor="#ffffff"
     bordercolor="#000000"
     borderopacity="1"
     objecttolerance="10"
     gridtolerance="10"
     guidetolerance="10"
     inkscape:pageopacity="0"
     inkscape:pageshadow="2"
     inkscape:window-width="1366"
     inkscape:window-height="768"
     id="namedview5"
     showgrid="false"
     inkscape:object-nodes="true"
     inkscape:zoom="1"
     inkscape:cx="64"
     inkscape:cy="16"
     inkscape:window-x="0"
     inkscape:window-y="0"
     inkscape:window-maximized="1"
     inkscape:current-layer="layer1"
     borderlayer="true"
     inkscape:showpageshadow="false"
     inkscape:snap-text-baseline="false"
     inkscape:snap-bbox="true"
     fit-margin-top="0"
     fit-margin-left="0"
     fit-margin-right="0"
     fit-margin-bottom="0"
     inkscape:snap-object-midpoints="true"
     inkscape:snap-bbox-edge-midpoints="true"
     showguides="true"
     inkscape:guide-bbox="true">
    <inkscape:grid
       type="xygrid"
       id="grid7"
       empspacing="4"
       spacingx="16"
       spacingy="16"
       originx="0"
       originy="0"
       dotted="false" />
    <inkscape:grid
       type="xygrid"
       id="grid55"
       spacingx="4"
       spacingy="4"
       empspacing="0"
       dotted="true"
       empcolor="#000000"
       empopacity="0.25098039"
       color="#000000"
       opacity="0.25098039"
       originx="0"
       originy="0" />
  </sodipodi:namedview>
  <g
     inkscape:label="Layer 1"
     inkscape:groupmode="layer"
     id="layer1"
     transform="translate(0,-4968)">
    <path
       style="opacity:1;vector-effect:none;fill:#193300;fill-opacity:1;stroke:none;stroke-width:1;stroke-linecap:butt;stroke-linejoin:miter;stroke-miterlimit:4;stroke-dasharray:none;stroke-dashoffset:0;stroke-opacity:1"
       d="M 16,0 C 7.136,0 0,7.136 0,16 0,24.864 7.136,32 16,32 h 96 c 8.864,0 16,-7.136 16,-16 0,-8.864 -7.136,-16 -16,-16 z m 0,8 c 0.675205,0.00378 1.347214,0.093036 2,0.265625 V 16 L 14,15.998 V 8.2675781 C 14.652701,8.09433 15.324712,8.00442 16,8 Z M 36,8 H 52 V 24 H 36 Z m 20,0 h 4.572266 v 11.427734 h 6.855468 V 8 H 72 V 24 H 56 Z m 25.714844,0 h 4.570312 V 24 H 81.714844 Z M 96,8 h 16 v 4.572266 h -5.71484 V 24 h -4.57032 V 12.572266 H 96 Z M 19,8.5878906 A 8,8 0 0 1 24,16 8,8 0 0 1 16,24 8,8 0 0 1 8,16 8,8 0 0 1 13,8.5898438 V 13.361328 A 4,4 0 0 0 12,16 a 4,4 0 0 0 4,4 4,4 0 0 0 4,-4 4,4 0 0 0 -1,-2.638672 z m 21.572266,3.9843754 v 6.855468 h 1.142578 v -5.71289 h 4.570312 v 5.71289 h 1.142578 v -6.855468 z"
       transform="translate(0,4968)"
       id="rect9"
       inkscape:connector-curvature="0" />
  </g>
</svg>
