<?xml version="1.0" encoding="UTF-8" standalone="no"?>
<svg
   width="192"
   height="40"
   viewBox="0 0 192 40"
   version="1.1"
   id="svg8"
   inkscape:version="1.2.1 (9c6d41e410, 2022-07-14)"
   sodipodi:docname="snake.svg"
   xmlns:inkscape="http://www.inkscape.org/namespaces/inkscape"
   xmlns:sodipodi="http://sodipodi.sourceforge.net/DTD/sodipodi-0.dtd"
   xmlns="http://www.w3.org/2000/svg"
   xmlns:svg="http://www.w3.org/2000/svg"
   xmlns:rdf="http://www.w3.org/1999/02/22-rdf-syntax-ns#"
   xmlns:cc="http://creativecommons.org/ns#"
   xmlns:dc="http://purl.org/dc/elements/1.1/">
  <defs
     id="defs2" />
  <sodipodi:namedview
     id="base"
     pagecolor="#ffffff"
     bordercolor="#000000"
     borderopacity="1"
     inkscape:pageopacity="0.0"
     inkscape:pageshadow="2"
     inkscape:zoom="4"
     inkscape:cx="93"
     inkscape:cy="31.125"
     inkscape:document-units="px"
     inkscape:current-layer="layer1"
     inkscape:document-rotation="0"
     showgrid="true"
     units="px"
     scale-x="1"
     borderlayer="true"
     inkscape:showpageshadow="false"
     inkscape:pagecheckerboard="false"
     inkscape:deskcolor="#d1d1d1">
    <inkscape:grid
       type="xygrid"
       id="grid1137"
       spacingx="4"
       spacingy="4"
       empspacing="4"
       originx="0"
       originy="0" />
  </sodipodi:namedview>
  <metadata
     id="metadata5">
    <rdf:RDF>
      <cc:Work
         rdf:about="">
        <dc:format>image/svg+xml</dc:format>
        <dc:type
           rdf:resource="http://purl.org/dc/dcmitype/StillImage" />
      </cc:Work>
    </rdf:RDF>
  </metadata>
  <g
     inkscape:label="Layer 1"
     inkscape:groupmode="layer"
     id="layer1">
    <path
       id="rect2150"
       style="fill:#193300;stroke-width:6;stroke-linecap:square;stroke-miterlimit:100;paint-order:fill markers stroke"
       d="m 183,39 h -6 v -6 h 6 z M 167,23 h -6 v -6 h 6 z m 8,-8 h -6 V 9 h 6 z m 0,24 h -6 v -6 h 6 z m -8,-8 h -6 v -6 h 6 z m 8,0 h -6 v -6 h 6 z m 16,8 h -6 v -6 h 6 z m 0,-16 h -6 v -6 h 6 z m -8,8 h -6 v -6 h 6 z m 0,-16 h -6 V 9 h 6 z m -32,24 h -6 v -6 h 6 z m -8,-8 h -6 v -6 h 6 z m 0,-16 h -6 V 9 h 6 z m -8,8 h -6 v -6 h 6 z m -8,8 h -6 v -6 h 6 z m 0,8 h -6 v -6 h 6 z m 0,-24 h -6 V 9 h 6 z m 0,8 h -6 v -6 h 6 z m 0,-16 h -6 V 1 h 6 z M 87,23 h -6 v -6 h 6 z m 8,-8 H 89 V 9 h 6 z m 0,24 h -6 v -6 h 6 z m -8,-8 h -6 v -6 h 6 z m 16,0 h -6 v -6 h 6 z m 8,8 h -6 v -6 h 6 z m 0,-8 h -6 v -6 h 6 z m 0,-8 h -6 v -6 h 6 z m -8,-8 H 97 V 9 h 6 z M 65,25 h 6 v 6 h -6 z m 0,8 h 6 v 6 H 65 Z M 57,9 h 6 v 6 h -6 z m 8,8 h 6 v 6 h -6 z m -16,0 h 6 v 6 H 49 Z M 41,9 h 6 v 6 h -6 z m 0,8 h 6 v 6 h -6 z m 0,8 h 6 v 6 h -6 z m 0,8 h 6 v 6 H 41 Z M 1,33 h 6 v 6 H 1 Z M 25,1 h 6 v 6 h -6 z m -8,32 h 6 v 6 h -6 z m -8,0 h 6 v 6 H 9 Z m 16,-8 h 6 v 6 h -6 z m -8,-8 h 6 v 6 h -6 z m -8,0 h 6 v 6 H 9 Z M 1,9 h 6 v 6 H 1 Z M 17,1 h 6 V 7 H 17 Z M 9,1 h 6 V 7 H 9 Z" />
  </g>
</svg>
