<?xml version="1.0" encoding="UTF-8" standalone="no"?>
<svg
   xmlns:dc="http://purl.org/dc/elements/1.1/"
   xmlns:cc="http://creativecommons.org/ns#"
   xmlns:rdf="http://www.w3.org/1999/02/22-rdf-syntax-ns#"
   xmlns:svg="http://www.w3.org/2000/svg"
   xmlns="http://www.w3.org/2000/svg"
   xmlns:sodipodi="http://sodipodi.sourceforge.net/DTD/sodipodi-0.dtd"
   xmlns:inkscape="http://www.inkscape.org/namespaces/inkscape"
   width="80"
   height="64"
   id="svg2"
   version="1.1"
   inkscape:version="0.92.3 (2405546, 2018-03-11)"
   sodipodi:docname="rotate-button-right.svg"
   style="enable-background:new">
  <metadata
     id="metadata9">
    <rdf:RDF>
      <cc:Work
         rdf:about="">
        <dc:format>image/svg+xml</dc:format>
        <dc:type
           rdf:resource="http://purl.org/dc/dcmitype/StillImage" />
        <dc:title></dc:title>
      </cc:Work>
    </rdf:RDF>
  </metadata>
  <defs
     id="defs7" />
  <sodipodi:namedview
     pagecolor="#ffffff"
     bordercolor="#666666"
     borderopacity="1"
     objecttolerance="10"
     gridtolerance="10"
     guidetolerance="10"
     inkscape:pageopacity="0"
     inkscape:pageshadow="2"
     inkscape:window-width="1366"
     inkscape:window-height="768"
     id="namedview5"
     showgrid="true"
     inkscape:object-nodes="true"
     inkscape:zoom="4"
     inkscape:cx="40"
     inkscape:cy="32"
     inkscape:window-x="0"
     inkscape:window-y="0"
     inkscape:window-maximized="1"
     inkscape:current-layer="layer1"
     width="128px"
     inkscape:snap-smooth-nodes="true">
    <inkscape:grid
       type="xygrid"
       id="grid10"
       spacingx="8"
       spacingy="8"
       empspacing="4" />
  </sodipodi:namedview>
  <g
     inkscape:label="Layer 1"
     inkscape:groupmode="layer"
     id="layer1"
     transform="translate(0,-4936)">
    <path
       id="path166"
       style="opacity:1;fill:#193300;fill-opacity:1;stroke:none;stroke-width:2.25;stroke-linecap:round;stroke-linejoin:round;stroke-miterlimit:4;stroke-dasharray:none"
       d="m 46,4979.0002 v -6 C 46,4972.4477 45.552285,4972 45,4972 h -5 c -2.209139,0 -4,-1.7909 -4,-4 0,-2.2091 1.790861,-4 4,-4 h 4 v 3 c 0,0.5523 0.447715,1 1,1 h 1 l 7.2929,-7.2929 c 0.390515,-0.3905 0.390515,-1.0237 0,-1.4142 L 46,4952 h -1 c -0.552285,0 -1,0.4477 -1,1 v 3 l -4,-0.065 c -6.69949,-0.065 -12.13038,5.3659 -12.130859,12.0654 4.79e-4,6.6991 5.431369,12.13 12.130859,12.065 l 5,-0.065 c 0.552285,-2e-4 1,-0.4479 1,-1 z M 48,4936 c 17.673112,0 32,14.3269 32,32 0,17.6731 -14.326888,32 -32,32 H 32 c -17.67311,0 -32,-14.3269 -32,-32 0,-17.6731 14.32689,-32 32,-32 z m -8,8 c -13.254834,0 -24,10.7452 -24,24 0,13.2548 10.745166,24 24,24 13.254834,0 24,-10.7452 24,-24 0,-13.2548 -10.745166,-24 -24,-24 z"
       inkscape:connector-curvature="0"
       sodipodi:nodetypes="cssssscssccccsscccccscssssssssssss" />
  </g>
</svg>
