<?xml version="1.0" encoding="UTF-8" standalone="no"?>
<svg
   xmlns:dc="http://purl.org/dc/elements/1.1/"
   xmlns:cc="http://creativecommons.org/ns#"
   xmlns:rdf="http://www.w3.org/1999/02/22-rdf-syntax-ns#"
   xmlns:svg="http://www.w3.org/2000/svg"
   xmlns="http://www.w3.org/2000/svg"
   xmlns:sodipodi="http://sodipodi.sourceforge.net/DTD/sodipodi-0.dtd"
   xmlns:inkscape="http://www.inkscape.org/namespaces/inkscape"
   width="64"
   height="24"
   id="svg2"
   version="1.1"
   inkscape:version="0.92.3 (2405546, 2018-03-11)"
   sodipodi:docname="pause-button.svg"
   viewBox="0 0 64 24"
   style="enable-background:new">
  <metadata
     id="metadata9">
    <rdf:RDF>
      <cc:Work
         rdf:about="">
        <dc:format>image/svg+xml</dc:format>
        <dc:type
           rdf:resource="http://purl.org/dc/dcmitype/StillImage" />
        <dc:title></dc:title>
      </cc:Work>
    </rdf:RDF>
  </metadata>
  <defs
     id="defs7" />
  <sodipodi:namedview
     pagecolor="#ffffff"
     bordercolor="#000000"
     borderopacity="1"
     objecttolerance="10"
     gridtolerance="10"
     guidetolerance="10"
     inkscape:pageopacity="0"
     inkscape:pageshadow="2"
     inkscape:window-width="1366"
     inkscape:window-height="768"
     id="namedview5"
     showgrid="true"
     inkscape:object-nodes="true"
     inkscape:zoom="5.6568542"
     inkscape:cx="43.898079"
     inkscape:cy="19.681241"
     inkscape:window-x="0"
     inkscape:window-y="0"
     inkscape:window-maximized="1"
     inkscape:current-layer="layer1"
     borderlayer="true"
     inkscape:showpageshadow="false"
     inkscape:snap-smooth-nodes="true"
     inkscape:snap-text-baseline="true">
    <inkscape:grid
       type="xygrid"
       id="grid58"
       spacingx="8"
       spacingy="8"
       empspacing="4" />
  </sodipodi:namedview>
  <g
     inkscape:label="Layer 1"
     inkscape:groupmode="layer"
     id="layer1"
     transform="translate(0,-4976)">
    <path
       style="opacity:1;fill:#193300;fill-opacity:1;stroke:none;stroke-width:2.25;stroke-linecap:round;stroke-linejoin:round;stroke-miterlimit:4;stroke-dasharray:none"
       d="m 12,4976 c -6.627417,0 -12,5.3726 -12,12 0,6.6274 5.372583,12 12,12 h 40 c 6.627415,0 12,-5.3726 12,-12 0,-6.6274 -5.372585,-12 -12,-12 z m 0,9 h 6 v 1 h 1 v 2 h -1 v 1 h -4 v 3 h -2 z m 10,0 h 3 v 1 h 1 v 1 h 1 v 5 h -2 v -2 h -3 v 2 h -2 v -5 h 1 v -1 h 1 z m 6,0 h 2 v 6 h 3 v -6 h 2 v 6 h -1 v 1 h -5 v -1 h -1 z m 9,0 h 5 v 1 h 1 v 1 h -2 v -1 h -3 v 2 h 4 v 1 h 1 v 2 h -1 v 1 h -5 v -1 h -1 v -1 h 2 v 1 h 3 v -2 h -4 v -1 h -1 v -2 h 1 z m 7,0 h 7 v 1 h -5 v 2 h 3 v 1 h -3 v 2 h 5 v 1 h -7 z m -30,1 v 2 h 3 v -2 z m 9,0 v 1 h -1 v 2 h 3 v -2 h -1 v -1 z"
       id="path79"
       inkscape:connector-curvature="0" />
  </g>
</svg>
